<svg width="16" height="16" viewBox="0 0 16 16" fill="none" xmlns="http://www.w3.org/2000/svg">
<path d="M15.4992 3.12125H0.500776C0.359128 3.11162 0.227095 3.04723 0.133476 2.94214C0.0398567 2.83704 -0.00775305 2.69977 0.00103117 2.56025C-0.00754434 2.42086 0.0401599 2.28377 0.133758 2.17884C0.227356 2.07391 0.359268 2.00963 0.500776 2H15.4992C15.6407 2.00963 15.7726 2.07391 15.8662 2.17884C15.9598 2.28377 16.0075 2.42086 15.999 2.56025C16.0078 2.69977 15.9601 2.83704 15.8665 2.94214C15.7729 3.04723 15.6409 3.11162 15.4992 3.12125Z" fill="#3452FF"/>
<path d="M15.4991 8.56101H0.500607C0.362503 8.54304 0.235738 8.47627 0.143914 8.37314C0.0520897 8.27 0.00146484 8.13753 0.00146484 8.00038C0.00146484 7.86324 0.0520897 7.73076 0.143914 7.62763C0.235738 7.52449 0.362503 7.45773 0.500607 7.43976H15.4991C15.6372 7.45773 15.7639 7.52449 15.8557 7.62763C15.9476 7.73076 15.9982 7.86324 15.9982 8.00038C15.9982 8.13753 15.9476 8.27 15.8557 8.37314C15.7639 8.47627 15.6372 8.54304 15.4991 8.56101Z" fill="#3452FF"/>
<path d="M15.4991 14H0.500607C0.362503 13.982 0.235738 13.9153 0.143914 13.8121C0.0520897 13.709 0.00146484 13.5765 0.00146484 13.4394C0.00146484 13.3022 0.0520897 13.1698 0.143914 13.0666C0.235738 12.9635 0.362503 12.8967 0.500607 12.8788H15.4991C15.6372 12.8967 15.7639 12.9635 15.8557 13.0666C15.9476 13.1698 15.9982 13.3022 15.9982 13.4394C15.9982 13.5765 15.9476 13.709 15.8557 13.8121C15.7639 13.9153 15.6372 13.982 15.4991 14Z" fill="#3452FF"/>
</svg>
