<svg width="14" height="14" viewBox="0 0 14 14" fill="none" xmlns="http://www.w3.org/2000/svg">
<path d="M13.5725 5.64322L7.17253 0.523221C7.11707 0.476305 7.04678 0.450562 6.97413 0.450562C6.90149 0.450562 6.8312 0.476305 6.77573 0.523221L0.375735 5.64322C0.317436 5.69825 0.281917 5.77316 0.276205 5.85312C0.270492 5.93309 0.295003 6.01228 0.344888 6.07504C0.394772 6.1378 0.466396 6.17955 0.545588 6.19203C0.62478 6.2045 0.705771 6.1868 0.772535 6.14242L1.55974 5.54722V11.8512C1.56648 12.3067 1.75348 12.741 2.07976 13.0588C2.40605 13.3767 2.84502 13.5523 3.30053 13.5472H5.71973C5.8046 13.5472 5.886 13.5135 5.94601 13.4535C6.00602 13.3935 6.03973 13.3121 6.03973 13.2272V10.0272C6.03628 9.76799 6.1351 9.51784 6.31479 9.33096C6.49448 9.14408 6.74057 9.03553 6.99973 9.02882C7.12701 9.02839 7.253 9.05432 7.36976 9.10499C7.48652 9.15566 7.59152 9.22996 7.67813 9.32322C7.77041 9.4153 7.84297 9.5252 7.89138 9.64624C7.9398 9.76728 7.96305 9.8969 7.95973 10.0272V13.2272C7.95973 13.3121 7.99345 13.3935 8.05346 13.4535C8.11347 13.5135 8.19486 13.5472 8.27973 13.5472H10.7117C11.1655 13.5506 11.6022 13.3741 11.9261 13.0562C12.25 12.7383 12.4347 12.305 12.4397 11.8512V5.56002L13.1693 6.14242C13.2259 6.18716 13.2956 6.21191 13.3677 6.21282C13.416 6.21357 13.4637 6.20295 13.5071 6.18183C13.5504 6.1607 13.5882 6.12966 13.6173 6.09122C13.6704 6.0257 13.6954 5.94189 13.687 5.85801C13.6787 5.77412 13.6375 5.69694 13.5725 5.64322ZM11.7997 11.8512C11.7972 11.9924 11.7669 12.1318 11.7106 12.2612C11.6542 12.3907 11.5729 12.5079 11.4713 12.6059C11.3697 12.704 11.2497 12.7811 11.1183 12.8328C10.9869 12.8845 10.8465 12.9098 10.7053 12.9072H8.59973V10.0336C8.6031 9.60406 8.43762 9.19036 8.13893 8.88162C7.99226 8.72713 7.81554 8.60428 7.61962 8.52063C7.42371 8.43699 7.21276 8.39431 6.99973 8.39522C6.78709 8.39773 6.57703 8.44209 6.38154 8.52579C6.18604 8.60949 6.00895 8.73087 5.86038 8.88302C5.7118 9.03516 5.59465 9.21508 5.51561 9.4125C5.43657 9.60992 5.3972 9.82098 5.39973 10.0336V12.9072H3.30693C3.16489 12.9106 3.02356 12.886 2.89103 12.8348C2.7585 12.7835 2.63736 12.7067 2.53454 12.6086C2.43172 12.5106 2.34923 12.3932 2.29178 12.2632C2.23434 12.1333 2.20306 11.9933 2.19974 11.8512V5.02882L6.99333 1.18882L11.7997 5.02882V11.8512Z" fill="#3452FF"/>
</svg>
